<svg id="Layer_1" data-name="Layer 1" xmlns="http://www.w3.org/2000/svg" viewBox="0 0 363.63 185.49"><defs><style>.cls-1{fill:#471bb2;}.cls-2{fill:#5f27cd;}.cls-3{fill:#15bc8c;}.cls-4{fill:#11d87d;}.cls-5{fill:#fff;}</style></defs><path class="cls-1" d="M83.77,45.55H81.25c-13.64,0-26.19-4.81-32.73-16.79V80.81a35.35,35.35,0,0,0,35.25,35.25h0A35.35,35.35,0,0,0,119,80.81h0A35.36,35.36,0,0,0,83.77,45.55Z"/><path class="cls-2" d="M48.52,82.7h0s0,0,0-.08c0-.6,0-1.21,0-1.81Z"/><path class="cls-2" d="M104,52A30.08,30.08,0,0,1,78.54,66.16H76.4A31.78,31.78,0,0,0,48.56,82.62a35.37,35.37,0,0,0,35.21,33.44h0A35.35,35.35,0,0,0,119,80.81h0A35.3,35.3,0,0,0,104,52Z"/><path class="cls-2" d="M138.17,185.49a3.86,3.86,0,0,1-3.87-3.86V128.85h25a16.54,16.54,0,0,1,16.52,16.52,15.43,15.43,0,0,1-3.16,9.27,16.55,16.55,0,0,1,12.57,16.05,3.87,3.87,0,0,1-7.73,0,8.8,8.8,0,0,0-8.79-8.79H148.61v-7.74l10.33,0c4.89-.36,9.16-4.44,9.16-8.77a8.8,8.8,0,0,0-8.79-8.79H142v45A3.86,3.86,0,0,1,138.17,185.49Zm20.72-31.35h0Z"/><path class="cls-2" d="M181.38,185.49a3.86,3.86,0,0,1-3.87-3.86V170.69a3.87,3.87,0,1,1,7.73,0v10.94A3.86,3.86,0,0,1,181.38,185.49Z"/><path class="cls-2" d="M219.61,185.16a27.32,27.32,0,1,1,27.31-27.31A27.35,27.35,0,0,1,219.61,185.16Zm0-46.9a19.59,19.59,0,1,0,19.58,19.59A19.61,19.61,0,0,0,219.61,138.26Z"/><path class="cls-2" d="M275.28,185.16a27.32,27.32,0,1,1,27.32-27.31A27.35,27.35,0,0,1,275.28,185.16Zm0-46.9a19.59,19.59,0,1,0,19.58,19.59A19.61,19.61,0,0,0,275.28,138.26Z"/><path class="cls-2" d="M337,185.16a3.86,3.86,0,0,1-3.87-3.86V142.64a7.57,7.57,0,1,0-15.13,0V181.3a3.87,3.87,0,0,1-7.73,0V142.64a15.3,15.3,0,1,1,30.59,0V181.3A3.86,3.86,0,0,1,337,185.16Z"/><path class="cls-2" d="M359.86,185.16A3.86,3.86,0,0,1,356,181.3V142.64a7.57,7.57,0,1,0-15.13,0V181.3a3.87,3.87,0,0,1-7.73,0V142.64a15.3,15.3,0,0,1,30.6,0V181.3A3.87,3.87,0,0,1,359.86,185.16Z"/><path class="cls-3" d="M78.54,60H76.4A31.78,31.78,0,0,0,48.52,76.58h0V30a30.11,30.11,0,0,1,30-30h0a30.11,30.11,0,0,1,30,30h0A30.11,30.11,0,0,1,78.54,60Z"/><path class="cls-4" d="M3.63,63.73,30.35,81.35a8.07,8.07,0,0,0,12.51-6.73V39.18a8.06,8.06,0,0,0-12.54-6.71L3.59,50.28A8.07,8.07,0,0,0,3.63,63.73Z"/><path class="cls-4" d="M78.54,60H76.4A31.78,31.78,0,0,0,48.52,76.58h0V30a30.11,30.11,0,0,1,30-30h0a30.11,30.11,0,0,1,30,30h0A30.11,30.11,0,0,1,78.54,60Z"/><path class="cls-2" d="M140.32,113.93a5.8,5.8,0,0,1-5.8-5.79V43.23a5.8,5.8,0,0,1,11.6,0v64.91A5.8,5.8,0,0,1,140.32,113.93Z"/><path class="cls-2" d="M200.54,113.93h-.12a33.85,33.85,0,0,1-33.84-33.84V30h25.86a5.8,5.8,0,1,1,0,11.6H178.18v38.5a22.27,22.27,0,0,0,22.24,22.25h.12a5.8,5.8,0,0,1,0,11.59Z"/><path class="cls-2" d="M140.32,19.7H140l-.28,0-.28,0-.28-.05-.28-.06-.27-.08-.27-.08-.27-.11-.26-.11-.25-.13-.25-.14-.24-.15-.23-.16-.23-.18-.21-.18-.21-.2-.2-.21-.18-.21-.18-.23-.16-.23-.15-.24-.14-.25c-.05-.08-.09-.17-.13-.25l-.11-.26-.11-.27-.09-.27c0-.09-.05-.18-.07-.27a2.8,2.8,0,0,1-.06-.28,2.33,2.33,0,0,1,0-.28,2.7,2.7,0,0,1,0-.28,2.64,2.64,0,0,1,0-.29,2.62,2.62,0,0,1,0-.28,2.81,2.81,0,0,1,0-.29,2.64,2.64,0,0,1,0-.28,2.36,2.36,0,0,1,0-.28,2.33,2.33,0,0,1,0-.28,2.3,2.3,0,0,1,.06-.28c0-.09.05-.18.07-.27l.09-.27.11-.27c0-.09.07-.17.11-.26s.08-.17.13-.25a2,2,0,0,1,.14-.25l.15-.24.16-.23.18-.23L136,10l.2-.21.21-.2.21-.18.23-.18.23-.16c.08-.05.16-.11.24-.15l.25-.14.25-.13.26-.12.27-.1.27-.09.27-.07.28-.07.28-.05.28,0,.28,0h.58l.28,0,.28,0,.28.05.28.07.27.07.27.09.27.1.26.12.25.13.25.14.24.15.23.16.23.18.21.18.21.2.2.21.18.21.18.23.16.23.15.24a2,2,0,0,1,.14.25c0,.08.09.17.13.25s.08.17.11.26.08.18.11.27l.09.27c0,.09,0,.18.07.27a2.29,2.29,0,0,1,.07.28c0,.09,0,.18,0,.28a2.36,2.36,0,0,1,0,.28,2.64,2.64,0,0,1,0,.28,2.81,2.81,0,0,1,0,.29,2.62,2.62,0,0,1,0,.28,2.64,2.64,0,0,1,0,.29,2.7,2.7,0,0,1,0,.28c0,.1,0,.19,0,.28a2.86,2.86,0,0,1-.07.28c0,.09-.05.18-.07.27l-.09.27c0,.09-.07.18-.11.27l-.11.26c0,.08-.08.17-.13.25l-.14.25-.15.24-.16.23-.18.23-.18.21-.2.21-.21.2-.21.18-.23.18-.23.16-.24.15-.25.14-.25.13-.26.11-.27.11-.27.08-.27.08a2.3,2.3,0,0,1-.28.06l-.28.05-.28,0-.28,0Z"/><path class="cls-2" d="M172.38,41.59a5.8,5.8,0,0,1-5.8-5.8V12.93a5.8,5.8,0,0,1,11.6,0V35.79A5.8,5.8,0,0,1,172.38,41.59Z"/><path class="cls-2" d="M250.31,113.87A37.7,37.7,0,1,1,288,76.17V82H237.06a5.8,5.8,0,0,1,0-11.6h38.7a26.11,26.11,0,1,0-5.91,23.1,5.8,5.8,0,1,1,8.68,7.69A37.74,37.74,0,0,1,250.31,113.87Z"/><path class="cls-2" d="M304.37,114.7a5.8,5.8,0,0,1-4.52-9.43l53.46-66.51a5.8,5.8,0,1,1,9,7.27l-53.46,66.5A5.79,5.79,0,0,1,304.37,114.7Z"/><path class="cls-2" d="M357.84,114.7a5.79,5.79,0,0,1-4.53-2.17L299.85,46a5.8,5.8,0,1,1,9-7.27l53.46,66.51a5.79,5.79,0,0,1-4.51,9.43Z"/><path class="cls-2" d="M172.38,41.59H161.8a5.8,5.8,0,0,1,0-11.6h10.58a5.8,5.8,0,1,1,0,11.6Z"/><polygon class="cls-5" points="57.73 22.53 94.72 22.53 94.72 115.97 83.59 120.96 83.55 29.34 57.73 22.53"/><circle class="cls-5" cx="79.21" cy="74.35" r="1.47"/></svg>